<?xml version="1.0" encoding="UTF-8"?>
<svg width="824px" height="824px" viewBox="0 0 824 824" version="1.1" xmlns="http://www.w3.org/2000/svg" xmlns:xlink="http://www.w3.org/1999/xlink">
    <title>grid</title>
    <g id="macOS-Tahoe" stroke="none" stroke-width="1" fill="none" fill-rule="evenodd">
        <g id="TahoeIcon-Light" transform="translate(1, 1)" fill="#FFFFFF" fill-rule="nonzero">
            <path d="M821.865209,720.751032 L821.865209,717.54116 L720.753843,717.54116 L720.753843,618.035124 L821.865209,618.035124 L821.865209,614.825251 L720.753843,614.825251 L720.753843,526.834632 C722.184128,523.016489 723.541773,519.177883 724.825999,515.319456 L821.865209,515.319456 L821.865209,512.109584 L725.879227,512.109584 C736.170919,480.091029 741.44813,446.742384 741.608624,412.603548 L821.865209,412.603548 L821.865209,409.393676 L741.608464,409.393676 C741.44796,375.255161 736.170719,341.906596 725.879066,309.88764 L821.865209,309.88764 L821.865209,306.677767 L724.826385,306.677767 C723.542158,302.819268 722.184505,298.980606 720.754229,295.162351 L720.754229,207.171491 L821.865595,207.171491 L821.865595,203.961618 L720.753843,203.961618 L720.753843,104.455582 L821.865209,104.455582 L821.865209,101.24571 L723.023232,101.24571 L823,1.26947589 L820.727209,-1 L720.753843,98.9763305 L720.753843,0.134737947 L717.543959,0.134737947 L717.543959,101.24571 L618.037535,101.24571 L618.037535,0.134737947 L614.82765,0.134737947 L614.82765,101.24571 L526.836688,101.24571 C523.01853,99.8154312 519.179909,98.4577917 515.321467,97.1735701 L515.321467,0.134737947 L512.111583,0.134737947 L512.111583,96.1203468 C480.092903,85.8286943 446.744128,80.551504 412.605159,80.3910104 L412.605159,0.134737947 L409.395274,0.134737947 L409.395274,80.3911709 C375.256627,80.5516741 341.907931,85.8288949 309.888851,96.1205073 L309.888851,0.134737947 L306.678966,0.134737947 L306.678966,97.1731849 C302.820452,98.4574066 298.981775,99.8150541 295.163505,101.245325 L207.172301,101.245325 L207.172301,0.134737947 L203.962417,0.134737947 L203.962417,101.24571 L104.455993,101.24571 L104.455993,0.134737947 L101.246108,0.134737947 L101.246108,98.9763305 L1.26948474,-1 L-1,1.26947589 L98.97672,101.24571 L0.134742368,101.24571 L0.134742368,104.455582 L101.246108,104.455582 L101.246108,203.961618 L0.134742368,203.961618 L0.134742368,207.171491 L101.246108,207.171491 L101.246108,295.16211 C99.815824,298.98035 98.4581792,302.819012 97.1739525,306.677527 L0.134742368,306.677527 L0.134742368,309.887399 L96.1207251,309.887399 C85.8290325,341.906355 80.5518217,375.25492 80.3913275,409.393435 L0.134742368,409.393435 L0.134742368,412.603307 L80.391488,412.603307 C80.5519918,446.742143 85.8292331,480.090788 96.1208856,512.109343 L0.134742368,512.109343 L0.134742368,515.319215 L97.1735673,515.319215 C98.457794,519.177666 99.8154468,523.01628 101.245723,526.834391 L101.245723,614.825251 L0.134742368,614.825251 L0.134742368,618.035124 L101.246108,618.035124 L101.246108,717.54116 L0.134742368,717.54116 L0.134742368,720.751032 L98.97672,720.751032 L-1,820.730524 L1.26948474,823 L101.246108,723.020411 L101.246108,821.862004 L104.455993,821.862004 L104.455993,720.751032 L203.962417,720.751032 L203.962417,821.862004 L207.172301,821.862004 L207.172301,720.751032 L295.163264,720.751032 C298.981518,722.181311 302.820195,723.53895 306.678725,724.823172 L306.678725,821.862004 L309.88861,821.862004 L309.88861,725.876395 C341.907691,736.168048 375.256386,741.445238 409.395034,741.605732 L409.395034,821.862004 L412.604918,821.862004 L412.604918,741.605571 C446.743887,741.445068 480.092662,736.167847 512.111342,725.876235 L512.111342,821.862004 L515.321227,821.862004 L515.321227,724.823557 C519.179693,723.539335 523.018321,722.181688 526.836447,720.751417 L614.82765,720.751417 L614.82765,821.862389 L618.037535,821.862389 L618.037535,720.751032 L717.543959,720.751032 L717.543959,821.862004 L720.753843,821.862004 L720.753843,723.020411 L820.730515,823 L823,820.727218 L723.023232,720.751032 L821.865209,720.751032 Z M717.543959,715.27178 L645.903667,643.631767 C654.005095,635.453495 661.628571,626.912025 668.776984,618.035124 L717.543959,618.035124 L717.543959,715.27178 Z M468.838085,355.429867 C482.362131,369.501144 490.813757,388.478711 491.22703,409.393435 L414.874307,409.393435 L468.838085,355.429867 Z M412.604918,407.124055 L412.604918,330.772031 C433.519724,331.184677 452.497284,339.636413 466.568536,353.160648 L412.604918,407.124055 Z M409.395034,407.124055 L355.431577,353.160808 C369.502587,339.636494 388.480228,331.1849 409.395034,330.771629 L409.395034,407.124055 Z M407.125645,409.393435 L330.773323,409.393435 C331.185971,388.478791 339.637821,369.501385 353.162108,355.430188 L407.125645,409.393435 Z M407.125645,412.603307 L353.162028,466.566714 C339.637821,452.495598 331.186194,433.518031 330.772922,412.603307 L407.125645,412.603307 Z M409.395034,414.872687 L409.395034,491.224711 C388.480308,490.812065 369.502668,482.360409 355.431416,468.836094 L409.395034,414.872687 Z M412.604918,414.872687 L466.568536,468.836094 C452.497365,482.360248 433.519724,490.811842 412.604918,491.225113 L412.604918,414.872687 Z M414.874307,412.603307 L491.226629,412.603307 C490.813981,433.518112 482.362211,452.495518 468.837924,466.566714 L414.874307,412.603307 Z M494.436915,412.603307 L512.111342,412.603307 L512.111342,509.839964 L471.10659,468.835372 C485.211706,454.182386 494.02284,434.403154 494.436915,412.603307 Z M494.436915,409.393435 C494.023385,387.59399 485.211947,367.814597 471.106831,353.161531 L512.111342,312.156778 L512.111342,409.393435 L494.436915,409.393435 Z M468.837282,350.89191 C454.184159,336.78693 434.40485,327.975831 412.604918,327.561757 L412.604918,309.887399 L509.841954,309.887399 L468.837282,350.89191 Z M409.395034,327.561757 C387.595503,327.975285 367.816034,336.786689 353.16291,350.89175 L312.157998,309.887399 L409.395034,309.887399 L409.395034,327.561757 Z M350.893281,353.16129 C336.788246,367.814356 327.977112,387.593588 327.563037,409.393435 L309.88861,409.393435 L309.88861,312.156778 L350.893281,353.16129 Z M327.563037,412.603307 C327.976567,434.402752 336.788005,454.182145 350.893121,468.835211 L309.88861,509.839964 L309.88861,412.603307 L327.563037,412.603307 Z M353.16267,471.104832 C367.815793,485.209812 387.595102,494.020911 409.395034,494.434985 L409.395034,512.109343 L312.157998,512.109343 L353.16267,471.104832 Z M412.604918,494.434985 C434.404449,494.021457 454.183918,485.210053 468.837042,471.104992 L509.841954,512.109343 L412.604918,512.109343 L412.604918,494.434985 Z M515.321227,412.603307 L614.808391,412.603307 C614.536362,448.070308 605.266688,482.109637 588.072941,512.109343 L515.321227,512.109343 L515.321227,412.603307 Z M515.321227,409.393435 L515.321227,309.887399 L588.07262,309.887399 C605.266367,339.887024 614.536113,373.926434 614.80815,409.393435 L515.321227,409.393435 Z M517.590615,306.677527 L556.248861,268.019432 C567.876668,279.826946 577.90194,292.79804 586.199492,306.677527 L517.590615,306.677527 Z M515.321227,304.408147 L515.321227,235.799217 C529.201009,244.096897 542.171912,254.122451 553.979472,265.750132 L515.321227,304.408147 Z M512.111342,306.677527 L412.604918,306.677527 L412.604918,207.19075 C448.072057,207.462778 482.111519,216.732255 512.111342,233.926016 L512.111342,306.677527 Z M409.395034,306.677527 L309.88861,306.677527 L309.88861,233.926336 C339.888352,216.732576 373.927895,207.463027 409.395034,207.191071 L409.395034,306.677527 Z M306.678725,304.408147 L268.02072,265.750293 C279.82804,254.12229 292.799184,244.097057 306.678725,235.798735 L306.678725,304.408147 Z M304.409337,306.677527 L235.800139,306.677527 C244.097851,292.797799 254.123525,279.827027 265.751332,268.019672 L304.409337,306.677527 Z M306.678725,309.887399 L306.678725,409.393435 L207.191561,409.393435 C207.46359,373.926434 216.733103,339.887024 233.926931,309.887399 L306.678725,309.887399 Z M306.678725,412.603307 L306.678725,512.109343 L233.927171,512.109343 C216.733344,482.109637 207.463839,448.070308 207.191802,412.603307 L306.678725,412.603307 Z M304.409337,515.319215 L265.751091,553.97731 C254.123284,542.169796 244.098012,529.198702 235.799658,515.319215 L304.409337,515.319215 Z M306.678725,517.588595 L306.678725,586.197445 C292.798863,577.899765 279.82804,567.874211 268.02048,556.24661 L306.678725,517.588595 Z M309.88861,515.319215 L409.395034,515.319215 L409.395034,614.805992 C373.927895,614.533964 339.888352,605.264246 309.88861,588.070566 L309.88861,515.319215 Z M412.604918,515.319215 L512.111342,515.319215 L512.111342,588.070325 C482.111519,605.264005 448.072057,614.533635 412.604918,614.805671 L412.604918,515.319215 Z M515.321227,517.588595 L553.979633,556.24685 C542.171912,567.874452 529.200768,577.899685 515.321227,586.198007 L515.321227,517.588595 Z M517.590615,515.319215 L586.199813,515.319215 C577.902181,529.199023 567.876668,542.169956 556.249021,553.977471 L517.590615,515.319215 Z M589.917341,515.319215 L614.82765,515.319215 L614.82765,612.555872 L558.51857,556.247011 C570.792848,543.785966 581.299603,530.042096 589.917341,515.319215 Z M591.764629,512.109343 C603.00404,492.086161 610.79443,470.328845 614.82765,447.575666 L614.82765,512.109343 L591.764629,512.109343 Z M591.764629,309.887399 L614.82765,309.887399 L614.82765,374.420755 C610.79443,351.668699 603.00404,329.910581 591.764629,309.887399 Z M589.917341,306.677527 C581.299603,291.954485 570.793169,278.211177 558.51865,265.749811 L614.82765,209.44087 L614.82765,306.677527 L589.917341,306.677527 Z M556.248861,263.480672 C543.788089,251.206121 530.044165,240.699407 515.321227,232.081703 L515.321227,207.171491 L612.558262,207.171491 L556.248861,263.480672 Z M512.111342,230.234422 C492.088082,218.995055 470.330681,211.204695 447.577414,207.171491 L512.111342,207.171491 L512.111342,230.234422 Z M309.88861,230.234422 L309.88861,207.171491 L374.422217,207.171491 C351.670073,211.204695 329.91187,218.995055 309.88861,230.234422 Z M306.678725,232.081703 C291.955626,240.699407 278.212265,251.2058 265.75085,263.480271 L209.44169,207.171491 L306.678725,207.171491 L306.678725,232.081703 Z M263.481703,265.750052 C251.207104,278.210776 240.700349,291.954646 232.082611,306.677527 L207.172301,306.677527 L207.172301,209.44087 L263.481703,265.750052 Z M230.235323,309.887399 C218.995912,329.910581 211.205522,351.668699 207.172301,374.421076 L207.172301,309.887399 L230.235323,309.887399 Z M230.235323,512.109343 L207.172301,512.109343 L207.172301,447.575987 C211.205522,470.328845 218.995912,492.086161 230.235323,512.109343 Z M232.082611,515.319215 C240.700349,530.042417 251.206863,543.785645 263.481462,556.246931 L207.172301,612.555872 L207.172301,515.319215 L232.082611,515.319215 Z M265.751091,558.51607 C278.211863,570.790621 291.955787,581.297335 306.678725,589.915039 L306.678725,614.825251 L209.44169,614.825251 L265.751091,558.51607 Z M309.88861,591.76232 C329.91187,603.001687 351.670073,610.792047 374.422538,614.825251 L309.88861,614.825251 L309.88861,591.76232 Z M512.111342,591.76232 L512.111342,614.825251 L447.577735,614.825251 C470.330681,610.792047 492.088082,603.001687 512.111342,591.76232 Z M515.321227,589.915039 C530.044486,581.297335 543.787768,570.790861 556.249101,558.51631 L612.558262,614.825251 L515.321227,614.825251 L515.321227,589.915039 Z M618.037535,515.319215 L717.543959,515.319215 L717.543959,526.257256 C716.005533,530.341987 714.386676,534.403911 712.679764,538.439523 C701.019697,566.006226 685.784622,591.574783 667.239834,614.825251 L618.037535,614.825251 L618.037535,515.319215 Z M618.037535,512.109343 L618.037535,412.603307 L717.543959,412.603307 L717.543959,512.109343 L618.037535,512.109343 Z M618.037535,409.393435 L618.037535,309.887399 L717.543959,309.887399 L717.543959,409.393435 L618.037535,409.393435 Z M618.037535,306.677527 L618.037535,207.171491 L667.240091,207.171491 C685.784718,230.421959 701.019713,255.990596 712.67978,283.557219 C714.3867,287.592919 716.005549,291.654844 717.543975,295.739566 L717.543975,306.677527 L618.037535,306.677527 Z M620.306923,203.961618 L643.633476,180.635157 C651.040766,188.113677 658.052759,195.892802 664.656295,203.961618 L620.306923,203.961618 Z M618.037535,201.692239 L618.037535,157.343281 C626.106383,163.946743 633.885698,170.958596 641.364088,178.365777 L618.037535,201.692239 Z M614.82765,203.961618 L515.321227,203.961618 L515.321227,104.455582 L526.258588,104.455582 C530.343583,105.994106 534.405756,107.613093 538.441624,109.320152 C566.008515,120.980004 591.576851,136.21486 614.82765,154.759093 L614.82765,203.961618 Z M512.111342,203.961618 L412.604918,203.961618 L412.604918,104.455582 L512.111342,104.455582 L512.111342,203.961618 Z M409.395034,203.961618 L309.88861,203.961618 L309.88861,104.455582 L409.395034,104.455582 L409.395034,203.961618 Z M306.678725,203.961618 L207.172301,203.961618 L207.172301,154.759013 C230.42286,136.214539 255.991597,120.979844 283.558327,109.320224 C287.594292,107.613166 291.656465,105.99417 295.741525,104.455654 L306.678725,104.455654 L306.678725,203.961618 Z M203.962417,201.692239 L180.635623,178.365536 C188.114125,170.958283 195.893409,163.94647 203.962417,157.34296 L203.962417,201.692239 Z M201.693028,203.961618 L157.343577,203.961618 C163.947112,195.892642 170.958945,188.113436 178.366235,180.634916 L201.693028,203.961618 Z M203.962417,207.171491 L203.962417,306.677527 L104.455993,306.677527 L104.455993,295.740289 C105.994523,291.655261 107.613516,287.593152 109.320581,283.557139 C120.980479,255.990436 136.215394,230.422199 154.7597,207.171491 L203.962417,207.171491 Z M203.962417,309.887399 L203.962417,409.393435 L104.455993,409.393435 L104.455993,309.887399 L203.962417,309.887399 Z M203.962417,412.603307 L203.962417,512.109343 L104.455993,512.109343 L104.455993,412.603307 L203.962417,412.603307 Z M203.962417,515.319215 L203.962417,614.825251 L154.759861,614.825251 C136.215234,591.574864 120.980399,566.006226 109.320653,538.439523 C107.613589,534.403622 105.994587,530.341497 104.456065,526.256534 L104.456065,515.319215 L203.962417,515.319215 Z M201.693028,618.035124 L178.366476,641.361585 C170.959185,633.883065 163.947192,626.10394 157.343657,618.035124 L201.693028,618.035124 Z M203.962417,620.304503 L203.962417,664.653461 C195.893489,658.049999 188.114253,651.038146 180.635864,643.630965 L203.962417,620.304503 Z M207.172301,618.035124 L306.678725,618.035124 L306.678725,717.54116 L295.740722,717.54116 C291.655976,716.00274 287.594035,714.383889 283.558327,712.676984 C255.991437,701.016738 230.423101,685.781882 207.172301,667.237649 L207.172301,618.035124 Z M309.88861,618.035124 L409.395034,618.035124 L409.395034,717.54116 L309.88861,717.54116 L309.88861,618.035124 Z M412.604918,618.035124 L512.111342,618.035124 L512.111342,717.54116 L412.604918,717.54116 L412.604918,618.035124 Z M515.321227,618.035124 L614.82765,618.035124 L614.82765,667.237247 C591.577172,685.781963 566.008435,701.016979 538.441624,712.677 C534.405957,714.383913 530.344048,716.002756 526.25931,717.541176 L515.321227,717.541176 L515.321227,618.035124 Z M618.037535,620.304503 L641.363927,643.630804 C633.885538,651.038226 626.106383,658.050192 618.037535,664.653702 L618.037535,620.304503 Z M620.306923,618.035124 L664.655813,618.035124 C658.052326,626.103859 651.040526,633.883065 643.633316,641.361425 L620.306923,618.035124 Z M717.543983,614.825251 L671.359095,614.825251 C689.365906,591.88566 704.196777,566.734706 715.635763,539.689447 C716.285272,538.153869 716.918617,536.613483 717.543983,535.070802 L717.543983,614.825251 L717.543983,614.825251 Z M720.753843,517.337422 L720.753843,515.319215 L721.446014,515.319215 C721.219277,515.993288 720.984955,516.664954 720.753843,517.337422 Z M722.505638,512.109343 L720.753843,512.109343 L720.753843,412.603307 L738.398339,412.603307 C738.23648,446.754742 732.904059,480.10772 722.505638,512.109343 Z M738.398579,409.393435 L720.753843,409.393435 L720.753843,309.887399 L722.505429,309.887399 C732.904059,341.889021 738.23648,375.242 738.398579,409.393435 Z M721.445574,306.677527 L720.753843,306.677527 L720.753843,304.65936 C720.984955,305.331788 721.219277,306.003454 721.445574,306.677527 Z M717.543959,286.925578 C716.918595,285.382842 716.285251,283.842416 715.635739,282.306829 C704.196456,255.261795 689.365986,230.110842 671.359336,207.171491 L717.543959,207.171491 L717.543959,286.925578 Z M668.776984,203.961618 C661.628603,195.085118 654.004774,186.543568 645.903346,178.365055 L717.543959,106.724962 L717.543959,203.961618 L668.776984,203.961618 Z M715.27457,104.455582 L643.634279,176.095595 C635.455974,167.994199 626.914471,160.370752 618.037535,153.222367 L618.037535,104.455582 L715.27457,104.455582 Z M614.82765,104.455558 L614.82765,150.640506 C591.887969,132.633766 566.736918,117.802792 539.691554,106.363771 C538.155969,105.714264 536.615577,105.080922 535.072891,104.455558 L614.82765,104.455558 L614.82765,104.455558 Z M517.338639,101.24571 L515.321227,101.24571 L515.321227,100.553787 C515.9945,100.780279 516.666168,101.014599 517.338639,101.24571 Z M512.111342,99.4947249 L512.111342,101.24571 L412.604918,101.24571 L412.604918,83.6012838 C446.756486,83.7631416 480.109595,89.0955416 512.111342,99.4947249 Z M409.395034,83.601043 L409.395034,101.24571 L309.88861,101.24571 L309.88861,99.4943237 C341.890357,89.0955416 375.243466,83.7631416 409.395034,83.601043 Z M306.678725,100.553983 L306.678725,101.24571 L304.661232,101.24571 C305.333784,101.014599 306.005452,100.780279 306.678725,100.553983 Z M286.9267,104.455582 C285.383957,105.080943 283.843526,105.714285 282.307933,106.363795 C255.262793,117.803033 230.111742,132.633445 207.172301,150.640827 L207.172301,104.455582 L286.9267,104.455582 Z M203.962417,153.222367 C195.085882,160.370672 186.544299,167.99452 178.365754,176.095755 L106.725382,104.455582 L203.962417,104.455582 L203.962417,153.222367 Z M104.455993,106.724962 L176.096285,178.364975 C167.994857,186.543247 160.371381,195.084717 153.222968,203.961618 L104.455993,203.961618 L104.455993,106.724962 Z M104.455969,207.171491 L150.641097,207.171491 C132.634286,230.111082 117.803255,255.261955 106.364189,282.306893 C105.71468,283.842472 105.081335,285.382906 104.455969,286.925643 L104.455969,207.171491 L104.455969,207.171491 Z M101.246108,304.660122 L101.246108,306.677527 L100.554231,306.677527 C100.780675,306.004256 101.014997,305.33259 101.246108,304.660122 Z M99.4951164,309.887399 L101.246108,309.887399 L101.246108,409.393435 L83.6016133,409.393435 C83.7634718,375.242 89.0958926,341.889021 99.4951164,309.887399 Z M83.6013726,412.603307 L101.246108,412.603307 L101.246108,512.109343 L99.4947151,512.109343 C89.0958926,480.10772 83.7634718,446.754742 83.6013726,412.603307 Z M100.554378,515.319215 L101.246108,515.319215 L101.246108,517.336796 C101.014997,516.664152 100.780675,515.992486 100.554378,515.319215 Z M104.455993,535.071163 C105.081356,536.613844 105.714701,538.15423 106.364213,539.689808 C117.803496,566.734947 132.633965,591.8859 150.641418,614.825251 L104.455993,614.825251 L104.455993,535.071163 Z M153.222968,618.035124 C160.371301,626.911704 167.995178,635.453174 176.096445,643.631687 L104.455993,715.27178 L104.455993,618.035124 L153.222968,618.035124 Z M106.725382,717.54116 L178.365673,645.901147 C186.543978,654.002543 195.085481,661.62599 203.962417,668.774375 L203.962417,717.54116 L106.725382,717.54116 Z M207.172301,717.541184 L207.172301,671.356476 C230.111983,689.363217 255.262954,704.19403 282.307997,715.632971 C283.843582,716.282478 285.384022,716.91582 286.926764,717.541184 L207.172301,717.541184 L207.172301,717.541184 Z M304.66051,720.751032 L306.678725,720.751032 L306.678725,721.443151 C306.004649,721.216463 305.332981,720.982143 304.66051,720.751032 Z M309.88861,722.50282 L309.88861,720.751032 L409.395034,720.751032 L409.395034,738.395458 C375.243466,738.2336 341.890357,732.9012 309.88861,722.50282 Z M412.604918,738.395699 L412.604918,720.751032 L512.111342,720.751032 L512.111342,722.502659 C480.109595,732.9012 446.756486,738.2336 412.604918,738.395699 Z M515.321227,721.443562 L515.321227,720.751032 L517.339506,720.751032 C516.666971,720.982143 515.995302,721.216463 515.321227,721.443562 Z M535.073252,717.54116 C536.615938,716.915799 538.15633,716.282456 539.691915,715.632947 C566.737159,704.193709 591.88821,689.363297 614.82765,671.356717 L614.82765,717.54116 L535.073252,717.54116 Z M618.037535,668.774375 C626.91415,661.626022 635.455653,654.002222 643.634198,645.900826 L715.27457,717.54116 L618.037535,717.54116 L618.037535,668.774375 Z" id="grid"></path>
        </g>
    </g>
</svg>