<?xml version="1.0" encoding="UTF-8"?>
<svg width="612px" height="612px" viewBox="0 0 612 612" version="1.1" xmlns="http://www.w3.org/2000/svg" xmlns:xlink="http://www.w3.org/1999/xlink">
    <title>Sausages</title>
    <g id="macOS-Tahoe" stroke="none" stroke-width="1" fill="none" fill-rule="evenodd">
        <g id="TahoeIcon-Light" transform="translate(-106, -106)" fill="#FFFFFF">
            <g id="Sausages" transform="translate(412, 412) rotate(-45) translate(-412, -412)translate(196, 196)">
                <path d="M43.2,-7.10542736e-15 L43.2,1.19679203e-16 C51.2027481,-4.66913336e-15 58.6703308,2.13241731 65.0703308,5.86483461 C71.4703308,9.59725192 76.8027481,14.9296692 80.5351654,21.3296692 C84.2675827,27.7296692 86.4,35.1972519 86.4,43.2 L86.4,259.2 C86.4,267.202748 84.2675827,274.670331 80.5351654,281.070331 C76.8027481,287.470331 71.4703308,292.802748 65.0703308,296.535165 C58.6703308,300.267583 51.2027481,302.4 43.2,302.4 L43.2,302.4 C35.1972519,302.4 27.7296692,300.267583 21.3296692,296.535165 C14.9296692,292.802748 9.59725192,287.470331 5.86483461,281.070331 C2.13241731,274.670331 4.56740603e-15,267.202748 -7.40462537e-15,259.2 L5.98396015e-17,43.2 C-2.33456668e-15,35.1972519 2.13241731,27.7296692 5.86483461,21.3296692 C9.59725192,14.9296692 14.9296692,9.59725192 21.3296692,5.86483461 C27.7296692,2.13241731 35.1972519,-7.10542736e-15 43.2,-7.10542736e-15 Z" id="Rectangle-path"></path>
                <path d="M388.8,129.6 L388.8,129.6 C396.802748,129.6 404.270331,131.732417 410.670331,135.464835 C417.070331,139.197252 422.402748,144.529669 426.135165,150.929669 C429.867583,157.329669 432,164.797252 432,172.8 L432,388.8 C432,396.802748 429.867583,404.270331 426.135165,410.670331 C422.402748,417.070331 417.070331,422.402748 410.670331,426.135165 C404.270331,429.867583 396.802748,432 388.8,432 L388.8,432 C380.797252,432 373.329669,429.867583 366.929669,426.135165 C360.529669,422.402748 355.197252,417.070331 351.464835,410.670331 C347.732417,404.270331 345.6,396.802748 345.6,388.8 L345.6,172.8 C345.6,164.797252 347.732417,157.329669 351.464835,150.929669 C355.197252,144.529669 360.529669,139.197252 366.929669,135.464835 C373.329669,131.732417 380.797252,129.6 388.8,129.6 Z" id="Rectangle-path"></path>
                <path d="M43.2,345.6 L259.2,345.6 C267.202748,345.6 274.670331,347.732417 281.070331,351.464835 C287.470331,355.197252 292.802748,360.529669 296.535165,366.929669 C300.267583,373.329669 302.4,380.797252 302.4,388.8 L302.4,388.8 C302.4,396.802748 300.267583,404.270331 296.535165,410.670331 C292.802748,417.070331 287.470331,422.402748 281.070331,426.135165 C274.670331,429.867583 267.202748,432 259.2,432 L43.2,432 C35.1972519,432 27.7296692,429.867583 21.3296692,426.135165 C14.9296692,422.402748 9.59725192,417.070331 5.86483461,410.670331 C2.13241731,404.270331 -7.10542736e-15,396.802748 -7.10542736e-15,388.8 L5.98396015e-17,388.8 C-2.33456668e-15,380.797252 2.13241731,373.329669 5.86483461,366.929669 C9.59725192,360.529669 14.9296692,355.197252 21.3296692,351.464835 C27.7296692,347.732417 35.1972519,345.6 43.2,345.6 Z" id="Rectangle-path"></path>
                <path d="M172.8,-7.10542736e-15 L388.8,-2.39358406e-16 C396.802748,9.33826671e-15 404.270331,2.13241731 410.670331,5.86483461 C417.070331,9.59725192 422.402748,14.9296692 426.135165,21.3296692 C429.867583,27.7296692 432,35.1972519 432,43.2 L432,43.2 C432,51.2027481 429.867583,58.6703308 426.135165,65.0703308 C422.402748,71.4703308 417.070331,76.8027481 410.670331,80.5351654 C404.270331,84.2675827 396.802748,86.4 388.8,86.4 L172.8,86.4 C164.797252,86.4 157.329669,84.2675827 150.929669,80.5351654 C144.529669,76.8027481 139.197252,71.4703308 135.464835,65.0703308 C131.732417,58.6703308 129.6,51.2027481 129.6,43.2 L129.6,43.2 C129.6,35.1972519 131.732417,27.7296692 135.464835,21.3296692 C139.197252,14.9296692 144.529669,9.59725192 150.929669,5.86483461 C157.329669,2.13241731 164.797252,-7.10542736e-15 172.8,-7.10542736e-15 Z" id="Rectangle-path"></path>
                <path d="M162,129.6 L270,129.6 C276.064371,129.6 281.685828,131.178543 286.485828,133.957086 C291.285828,136.735629 295.264371,140.714172 298.042914,145.514172 C300.821457,150.314172 302.4,155.935629 302.4,162 L302.4,162 C302.4,168.064371 300.821457,173.685828 298.042914,178.485828 C295.264371,183.285828 291.285828,187.264371 286.485828,190.042914 C281.685828,192.821457 276.064371,194.4 270,194.4 L162,194.4 C155.935629,194.4 150.314172,192.821457 145.514172,190.042914 C140.714172,187.264371 136.735629,183.285828 133.957086,178.485828 C131.178543,173.685828 129.6,168.064371 129.6,162 C129.6,155.935629 131.178543,150.314172 133.957086,145.514172 C136.735629,140.714172 140.714172,136.735629 145.514172,133.957086 C150.314172,131.178543 155.935629,129.6 162,129.6 Z" id="Rectangle-path"></path>
                <path d="M162,237.6 L270,237.6 C276.064371,237.6 281.685828,239.178543 286.485828,241.957086 C291.285828,244.735629 295.264371,248.714172 298.042914,253.514172 C300.821457,258.314172 302.4,263.935629 302.4,270 L302.4,270 C302.4,276.064371 300.821457,281.685828 298.042914,286.485828 C295.264371,291.285828 291.285828,295.264371 286.485828,298.042914 C281.685828,300.821457 276.064371,302.4 270,302.4 L162,302.4 C155.935629,302.4 150.314172,300.821457 145.514172,298.042914 C140.714172,295.264371 136.735629,291.285828 133.957086,286.485828 C131.178543,281.685828 129.6,276.064371 129.6,270 C129.6,263.935629 131.178543,258.314172 133.957086,253.514172 C136.735629,248.714172 140.714172,244.735629 145.514172,241.957086 C150.314172,239.178543 155.935629,237.6 162,237.6 Z" id="Rectangle-path"></path>
            </g>
        </g>
    </g>
</svg>