<?xml version="1.0" encoding="UTF-8"?>
<svg width="720px" height="720px" viewBox="0 0 720 720" version="1.1" xmlns="http://www.w3.org/2000/svg" xmlns:xlink="http://www.w3.org/1999/xlink">
    <title>squircle-light</title>
    <g id="macOS-Tahoe" stroke="none" stroke-width="1" fill="none" fill-rule="evenodd">
        <g id="TahoeIcon-Light" transform="translate(-52, -52)" stroke="#FFFFFF" stroke-width="5">
            <path d="M554.069758,54.5 C629.140858,54.5 656.398589,62.2280931 683.852888,76.9108128 C711.114476,91.4904698 732.50953,112.885524 747.089187,140.147112 C761.771907,167.601411 769.5,194.859142 769.5,269.930242 L769.5,554.069758 C769.5,629.140858 761.771907,656.398589 747.089187,683.852888 C732.50953,711.114476 711.114476,732.50953 683.852888,747.089187 C656.398589,761.771907 629.140858,769.5 554.069758,769.5 L269.930242,769.5 C194.859142,769.5 167.601411,761.771907 140.147112,747.089187 C112.885524,732.50953 91.4904698,711.114476 76.9108128,683.852888 C62.2280931,656.398589 54.5,629.140858 54.5,554.069758 L54.5,269.930242 C54.5,194.859142 62.2280931,167.601411 76.9108128,140.147112 C91.4904698,112.885524 112.885524,91.4904698 140.147112,76.9108128 C167.601411,62.2280931 194.859142,54.5 269.930242,54.5 Z" id="squircle-light"></path>
        </g>
    </g>
</svg>