<?xml version="1.0" encoding="UTF-8"?>
<svg width="474px" height="474px" viewBox="0 0 474 474" version="1.1" xmlns="http://www.w3.org/2000/svg" xmlns:xlink="http://www.w3.org/1999/xlink">
    <title>SausagesV3-FG</title>
    <g id="macOS-Tahoe" stroke="none" stroke-width="1" fill="none" fill-rule="evenodd">
        <g id="TahoeIcon-Light" transform="translate(-175, -175)" fill="#FFFFFF">
            <g id="SausagesV3" transform="translate(412, 412) rotate(-45) translate(-412, -412)translate(196, 196)">
                <g id="SausagesV3-FG" transform="translate(-33, 128.6)">
                    <path d="M33.4,1 L464.6,1 C470.664371,1 476.285828,2.57854311 481.085828,5.35708622 C485.885828,8.13562934 489.864371,12.1141724 492.642914,16.9141724 C495.421457,21.7141724 497,27.3356293 497,33.4 L497,33.4 C497,39.4643707 495.421457,45.0858276 492.642914,49.8858276 C489.864371,54.6858276 485.885828,58.6643707 481.085828,61.4429138 C476.285828,64.2214569 470.664371,65.8 464.6,65.8 L33.4,65.8 C27.3356293,65.8 21.7141724,64.2214569 16.9141724,61.4429138 C12.1141724,58.6643707 8.13562934,54.6858276 5.35708622,49.8858276 C2.57854311,45.0858276 1,39.4643707 1,33.4 L1,33.4 C1,27.3356293 2.57854311,21.7141724 5.35708622,16.9141724 C8.13562934,12.1141724 12.1141724,8.13562934 16.9141724,5.35708622 C21.7141724,2.57854311 27.3356293,1 33.4,1 Z" id="Rectangle-path"></path>
                    <path d="M33.4,109 L464.6,109 C470.664371,109 476.285828,110.578543 481.085828,113.357086 C485.885828,116.135629 489.864371,120.114172 492.642914,124.914172 C495.421457,129.714172 497,135.335629 497,141.4 L497,141.4 C497,147.464371 495.421457,153.085828 492.642914,157.885828 C489.864371,162.685828 485.885828,166.664371 481.085828,169.442914 C476.285828,172.221457 470.664371,173.8 464.6,173.8 L33.4,173.8 C27.3356293,173.8 21.7141724,172.221457 16.9141724,169.442914 C12.1141724,166.664371 8.13562934,162.685828 5.35708622,157.885828 C2.57854311,153.085828 1,147.464371 1,141.4 L1,141.4 C1,135.335629 2.57854311,129.714172 5.35708622,124.914172 C8.13562934,120.114172 12.1141724,116.135629 16.9141724,113.357086 C21.7141724,110.578543 27.3356293,109 33.4,109 Z" id="Rectangle-path"></path>
                </g>
            </g>
        </g>
    </g>
</svg>