<?xml version="1.0" encoding="UTF-8"?>
<svg width="888px" height="888px" viewBox="0 0 888 888" version="1.1" xmlns="http://www.w3.org/2000/svg" xmlns:xlink="http://www.w3.org/1999/xlink">
    <title>SausagesV3-BG</title>
    <g id="macOS-Tahoe" stroke="none" stroke-width="1" fill="none" fill-rule="evenodd">
        <g id="TahoeIcon-Light" transform="translate(32, 32)" fill="#FFFFFF">
            <g id="SausagesV3" transform="translate(412, 412) rotate(-45) translate(-412, -412)translate(196, 196)">
                <g id="SausagesV3-BG" transform="translate(-98.6, -98.6)">
                    <path d="M141.8,1 L141.8,1 C149.802748,1 157.270331,3.13241731 163.670331,6.86483461 C170.070331,10.5972519 175.402748,15.9296692 179.135165,22.3296692 C182.867583,28.7296692 185,36.1972519 185,44.2 L185,357.8 C185,365.802748 182.867583,373.270331 179.135165,379.670331 C175.402748,386.070331 170.070331,391.402748 163.670331,395.135165 C157.270331,398.867583 149.802748,401 141.8,401 C133.797252,401 126.329669,398.867583 119.929669,395.135165 C113.529669,391.402748 108.197252,386.070331 104.464835,379.670331 C100.732417,373.270331 98.6,365.802748 98.6,357.8 L98.6,44.2 C98.6,36.1972519 100.732417,28.7296692 104.464835,22.3296692 C108.197252,15.9296692 113.529669,10.5972519 119.929669,6.86483461 C126.329669,3.13241731 133.797252,1 141.8,1 Z" id="Rectangle-path"></path>
                    <path d="M487.4,228.2 L487.4,228.2 C495.402748,228.2 502.870331,230.332417 509.270331,234.064835 C515.670331,237.797252 521.002748,243.129669 524.735165,249.529669 C528.467583,255.929669 530.6,263.397252 530.6,271.4 L530.6,585 C530.6,593.002748 528.467583,600.470331 524.735165,606.870331 C521.002748,613.270331 515.670331,618.602748 509.270331,622.335165 C502.870331,626.067583 495.402748,628.2 487.4,628.2 C479.397252,628.2 471.929669,626.067583 465.529669,622.335165 C459.129669,618.602748 453.797252,613.270331 450.064835,606.870331 C446.332417,600.470331 444.2,593.002748 444.2,585 L444.2,271.4 C444.2,263.397252 446.332417,255.929669 450.064835,249.529669 C453.797252,243.129669 459.129669,237.797252 465.529669,234.064835 C471.929669,230.332417 479.397252,228.2 487.4,228.2 Z" id="Rectangle-path"></path>
                    <path d="M44.2,444.2 L357.8,444.2 C365.802748,444.2 373.270331,446.332417 379.670331,450.064835 C386.070331,453.797252 391.402748,459.129669 395.135165,465.529669 C398.867583,471.929669 401,479.397252 401,487.4 L401,487.4 C401,495.402748 398.867583,502.870331 395.135165,509.270331 C391.402748,515.670331 386.070331,521.002748 379.670331,524.735165 C373.270331,528.467583 365.802748,530.6 357.8,530.6 L44.2,530.6 C36.1972519,530.6 28.7296692,528.467583 22.3296692,524.735165 C15.9296692,521.002748 10.5972519,515.670331 6.86483461,509.270331 C3.13241731,502.870331 1,495.402748 1,487.4 C1,479.397252 3.13241731,471.929669 6.86483461,465.529669 C10.5972519,459.129669 15.9296692,453.797252 22.3296692,450.064835 C28.7296692,446.332417 36.1972519,444.2 44.2,444.2 Z" id="Rectangle-path"></path>
                    <path d="M271.4,98.6 L585,98.6 C593.002748,98.6 600.470331,100.732417 606.870331,104.464835 C613.270331,108.197252 618.602748,113.529669 622.335165,119.929669 C626.067583,126.329669 628.2,133.797252 628.2,141.8 L628.2,141.8 C628.2,149.802748 626.067583,157.270331 622.335165,163.670331 C618.602748,170.070331 613.270331,175.402748 606.870331,179.135165 C600.470331,182.867583 593.002748,185 585,185 L271.4,185 C263.397252,185 255.929669,182.867583 249.529669,179.135165 C243.129669,175.402748 237.797252,170.070331 234.064835,163.670331 C230.332417,157.270331 228.2,149.802748 228.2,141.8 C228.2,133.797252 230.332417,126.329669 234.064835,119.929669 C237.797252,113.529669 243.129669,108.197252 249.529669,104.464835 C255.929669,100.732417 263.397252,98.6 271.4,98.6 Z" id="Rectangle-path"></path>
                </g>
            </g>
        </g>
    </g>
</svg>