<?xml version="1.0" encoding="UTF-8"?>
<svg width="888px" height="888px" viewBox="0 0 888 888" version="1.1" xmlns="http://www.w3.org/2000/svg" xmlns:xlink="http://www.w3.org/1999/xlink">
    <title>SausagesV2</title>
    <g id="macOS-Tahoe" stroke="none" stroke-width="1" fill="none" fill-rule="evenodd">
        <g id="TahoeIcon-Light" transform="translate(32, 32)" fill="#FFFFFF">
            <g id="SausagesV2" transform="translate(412, 412) rotate(-45) translate(-412, -412)translate(196, 196)">
                <path d="M43.2,-97.6 L43.2,-97.6 C51.2027481,-97.6 58.6703308,-95.4675827 65.0703308,-91.7351654 C71.4703308,-88.0027481 76.8027481,-82.6703308 80.5351654,-76.2703308 C84.2675827,-69.8703308 86.4,-62.4027481 86.4,-54.4 L86.4,259.2 C86.4,267.202748 84.2675827,274.670331 80.5351654,281.070331 C76.8027481,287.470331 71.4703308,292.802748 65.0703308,296.535165 C58.6703308,300.267583 51.2027481,302.4 43.2,302.4 C35.1972519,302.4 27.7296692,300.267583 21.3296692,296.535165 C14.9296692,292.802748 9.59725192,287.470331 5.86483461,281.070331 C2.13241731,274.670331 9.23705556e-14,267.202748 9.23705556e-14,259.2 L9.23705556e-14,-54.4 C9.23705556e-14,-62.4027481 2.13241731,-69.8703308 5.86483461,-76.2703308 C9.59725192,-82.6703308 14.9296692,-88.0027481 21.3296692,-91.7351654 C27.7296692,-95.4675827 35.1972519,-97.6 43.2,-97.6 Z" id="Rectangle-path"></path>
                <path d="M388.8,129.6 L388.8,129.6 C396.802748,129.6 404.270331,131.732417 410.670331,135.464835 C417.070331,139.197252 422.402748,144.529669 426.135165,150.929669 C429.867583,157.329669 432,164.797252 432,172.8 L432,486.4 C432,494.402748 429.867583,501.870331 426.135165,508.270331 C422.402748,514.670331 417.070331,520.002748 410.670331,523.735165 C404.270331,527.467583 396.802748,529.6 388.8,529.6 C380.797252,529.6 373.329669,527.467583 366.929669,523.735165 C360.529669,520.002748 355.197252,514.670331 351.464835,508.270331 C347.732417,501.870331 345.6,494.402748 345.6,486.4 L345.6,172.8 C345.6,164.797252 347.732417,157.329669 351.464835,150.929669 C355.197252,144.529669 360.529669,139.197252 366.929669,135.464835 C373.329669,131.732417 380.797252,129.6 388.8,129.6 Z" id="Rectangle-path"></path>
                <path d="M-54.4,345.6 L259.2,345.6 C267.202748,345.6 274.670331,347.732417 281.070331,351.464835 C287.470331,355.197252 292.802748,360.529669 296.535165,366.929669 C300.267583,373.329669 302.4,380.797252 302.4,388.8 L302.4,388.8 C302.4,396.802748 300.267583,404.270331 296.535165,410.670331 C292.802748,417.070331 287.470331,422.402748 281.070331,426.135165 C274.670331,429.867583 267.202748,432 259.2,432 L-54.4,432 C-62.4027481,432 -69.8703308,429.867583 -76.2703308,426.135165 C-82.6703308,422.402748 -88.0027481,417.070331 -91.7351654,410.670331 C-95.4675827,404.270331 -97.6,396.802748 -97.6,388.8 C-97.6,380.797252 -95.4675827,373.329669 -91.7351654,366.929669 C-88.0027481,360.529669 -82.6703308,355.197252 -76.2703308,351.464835 C-69.8703308,347.732417 -62.4027481,345.6 -54.4,345.6 Z" id="Rectangle-path"></path>
                <path d="M172.8,0 L486.4,5.98396015e-17 C494.402748,-2.33456668e-15 501.870331,2.13241731 508.270331,5.86483461 C514.670331,9.59725192 520.002748,14.9296692 523.735165,21.3296692 C527.467583,27.7296692 529.6,35.1972519 529.6,43.2 L529.6,43.2 C529.6,51.2027481 527.467583,58.6703308 523.735165,65.0703308 C520.002748,71.4703308 514.670331,76.8027481 508.270331,80.5351654 C501.870331,84.2675827 494.402748,86.4 486.4,86.4 L172.8,86.4 C164.797252,86.4 157.329669,84.2675827 150.929669,80.5351654 C144.529669,76.8027481 139.197252,71.4703308 135.464835,65.0703308 C131.732417,58.6703308 129.6,51.2027481 129.6,43.2 C129.6,35.1972519 131.732417,27.7296692 135.464835,21.3296692 C139.197252,14.9296692 144.529669,9.59725192 150.929669,5.86483461 C157.329669,2.13241731 164.797252,0 172.8,0 Z" id="Rectangle-path"></path>
                <path d="M162,129.6 L270,129.6 C276.064371,129.6 281.685828,131.178543 286.485828,133.957086 C291.285828,136.735629 295.264371,140.714172 298.042914,145.514172 C300.821457,150.314172 302.4,155.935629 302.4,162 L302.4,162 C302.4,168.064371 300.821457,173.685828 298.042914,178.485828 C295.264371,183.285828 291.285828,187.264371 286.485828,190.042914 C281.685828,192.821457 276.064371,194.4 270,194.4 L162,194.4 C155.935629,194.4 150.314172,192.821457 145.514172,190.042914 C140.714172,187.264371 136.735629,183.285828 133.957086,178.485828 C131.178543,173.685828 129.6,168.064371 129.6,162 C129.6,155.935629 131.178543,150.314172 133.957086,145.514172 C136.735629,140.714172 140.714172,136.735629 145.514172,133.957086 C150.314172,131.178543 155.935629,129.6 162,129.6 Z" id="Rectangle-path"></path>
                <path d="M162,237.6 L270,237.6 C276.064371,237.6 281.685828,239.178543 286.485828,241.957086 C291.285828,244.735629 295.264371,248.714172 298.042914,253.514172 C300.821457,258.314172 302.4,263.935629 302.4,270 L302.4,270 C302.4,276.064371 300.821457,281.685828 298.042914,286.485828 C295.264371,291.285828 291.285828,295.264371 286.485828,298.042914 C281.685828,300.821457 276.064371,302.4 270,302.4 L162,302.4 C155.935629,302.4 150.314172,300.821457 145.514172,298.042914 C140.714172,295.264371 136.735629,291.285828 133.957086,286.485828 C131.178543,281.685828 129.6,276.064371 129.6,270 C129.6,263.935629 131.178543,258.314172 133.957086,253.514172 C136.735629,248.714172 140.714172,244.735629 145.514172,241.957086 C150.314172,239.178543 155.935629,237.6 162,237.6 Z" id="Rectangle-path"></path>
            </g>
        </g>
    </g>
</svg>